<svg id="Layer_1" data-name="Layer 1" xmlns="http://www.w3.org/2000/svg" viewBox="0 0 204.56 116.02">
  <defs>
    <style>
      .cls-1 {
        fill: #0020c0;
      }
    </style>
  </defs>
  <title>happy_cloud</title>
  <path class="cls-1" d="M118.82,122.11a1.55,1.55,0,0,0-2.5.3c-3.46,5.94-8.91,8.63-15.19,9.8A27.81,27.81,0,0,1,86,130.9c-3.86-1.46-6-3.17-8-6.42a1.53,1.53,0,0,0-2.38-.37c-8.32,7.92-18.35,11.43-29,13.09-6.59,1-13.16.74-19.49-2-4.82-2.08-9.33-5.1-9.78-14.13a4.29,4.29,0,0,1,0-.72c.85-6.38,3.8-11.4,7.43-15.91C29.94,98,34.78,94.14,43.14,89.68L41.79,89a25.64,25.64,0,0,1-10.93-9.63,17.39,17.39,0,0,1-.45-18.08c4.09-7.72,9.88-13.18,17.81-15.42,6.64-1.88,13.15-1.1,19.54,1.43l.93.34a42.76,42.76,0,0,1-1.07-4.77C67,37.34,69,32.83,72.44,29.07a23.35,23.35,0,0,1,12.07-7c3.37-.78,6.64,0,9.75,1.49,8.38,3.93,14.95,10.3,19.95,18.74l.59,1c.54-1.27,1-2.5,1.57-3.63,2.55-4.86,6.42-8.1,10.76-10.74,5.38-3.28,11.22-4.69,17.23-5.41a53.25,53.25,0,0,1,25.5,3c3.33,1.26,6.68,2.56,9.07,5.64,5.83,7.55,8.46,16.09,6.19,26.06a6,6,0,0,0-.06.61l1.1-.49c6.18-2.88,12.5-3.88,19.13-2.23,9.5,2.36,14.22,8.52,16.05,19.46A37.64,37.64,0,0,1,218.87,96a19.74,19.74,0,0,1-7.83,9,28.88,28.88,0,0,1-13.41,4.43c-7.09.75-14.13-.08-21.16-1h0a1.59,1.59,0,0,0-1.75,1.83l.09.71c1.11,10-3,17.73-11.33,21.55a30.32,30.32,0,0,1-17.37,2.32,54.1,54.1,0,0,1-20.69-7.25,27.38,27.38,0,0,1-6.58-5.48ZM149.16,26l-.23,0c-2.05.28-6,.68-9.92,1.43A31.28,31.28,0,0,0,121.54,37c-3.14,3.41-5,7.45-4.49,12.54.11,1-.19,1.73-1.11,1.88s-1.28-.61-1.56-1.47a30.79,30.79,0,0,0-1.63-4.56,42.58,42.58,0,0,0-23-20.7,1.87,1.87,0,0,0-.61-.11A19.44,19.44,0,0,0,73.57,32c-4.77,5.78-4.59,12.75.31,18.38.27.3.65.58.73.94.12.54.23,1.34,0,1.65s-1,.42-1.52.46c-.26,0-.53-.32-.8-.49-7.07-4.57-14.63-6.36-22.68-4.41S35.91,56,32.14,63.93a13.55,13.55,0,0,0,.94,13.79,24.33,24.33,0,0,0,4.86,5.39c3.67,3,7.67,5.23,12.43,5a1.25,1.25,0,0,1,.89.18c.38.37.88.88.88,1.33A2.05,2.05,0,0,1,51.29,91a2.15,2.15,0,0,1-1.4.23,11,11,0,0,0-5.71,1.23,48,48,0,0,0-18.25,15,29.35,29.35,0,0,0-5.44,10.46c-1.53,5.76.12,10.29,4.82,13.18s9.71,3.7,14.92,3.67A52.25,52.25,0,0,0,58.4,131.2a44.26,44.26,0,0,0,13.81-7.79c2.05-1.77,3.93-3.73,4.58-6.72a1.17,1.17,0,0,1,1.6-1c.86.27,1,1,.89,1.92a7.38,7.38,0,0,0,2.54,7.4,18.91,18.91,0,0,0,4.92,3,24.79,24.79,0,0,0,13.3,1.38A20.69,20.69,0,0,0,110.61,125a14.13,14.13,0,0,0,5.31-10.31,3.27,3.27,0,0,1,.33-1.54,2.14,2.14,0,0,1,1.34-.94c.67,0,1.09.56,1.13,1.36a4,4,0,0,1,0,.92,5.38,5.38,0,0,0,1.42,4.81,31.89,31.89,0,0,0,5.19,4.83,48.86,48.86,0,0,0,20.31,7.72,28.08,28.08,0,0,0,17-2.07c6.78-3.23,10.92-9.15,9.55-20.37a1.79,1.79,0,0,0-.26-.71c-1.46-2.31-.89-3.89.9-3.68,4.61.55,9.21,1.22,13.83,1.61,5.42.46,10.86.47,16.18-1,7.49-2.13,13.19-6.48,15.22-15.4,1.69-7.37,1.64-14.57-1.39-21.52-1.38-3.17-3.3-5.89-6.2-7.45a23.76,23.76,0,0,0-18.75-1.92,38.51,38.51,0,0,0-10.84,5.46c-.73.51-1.43.6-2-.23a1.53,1.53,0,0,1,.46-2.17c2.6-2.1,3.71-5.07,3.95-8.49a28.59,28.59,0,0,0-4.42-17.32,15,15,0,0,0-6.54-5.92C165.5,27.46,158.45,26.1,149.16,26Z" transform="translate(-17.27 -21.73)"/>
</svg>
